<?xml version="1.0" encoding="UTF-8" standalone="no"?>
<!-- Created with Inkscape (http://www.inkscape.org/) -->

<svg
   xmlns:dc="http://purl.org/dc/elements/1.1/"
   xmlns:cc="http://creativecommons.org/ns#"
   xmlns:rdf="http://www.w3.org/1999/02/22-rdf-syntax-ns#"
   xmlns:svg="http://www.w3.org/2000/svg"
   xmlns="http://www.w3.org/2000/svg"
   xmlns:sodipodi="http://sodipodi.sourceforge.net/DTD/sodipodi-0.dtd"
   xmlns:inkscape="http://www.inkscape.org/namespaces/inkscape"
   width="193.24686mm"
   height="152.70027mm"
   viewBox="0 0 193.24686 152.70027"
   version="1.1"
   id="svg8"
   inkscape:version="0.92.3 (2405546, 2018-03-11)"
   sodipodi:docname="logo.svg">
  <defs
     id="defs2" />
  <sodipodi:namedview
     id="base"
     pagecolor="#ffffff"
     bordercolor="#666666"
     borderopacity="1.0"
     inkscape:pageopacity="0.0"
     inkscape:pageshadow="2"
     inkscape:zoom="0.35"
     inkscape:cx="313.58524"
     inkscape:cy="289.16217"
     inkscape:document-units="mm"
     inkscape:current-layer="layer1"
     showgrid="false"
     inkscape:object-paths="true"
     inkscape:measure-start="0,0"
     inkscape:measure-end="0,0"
     inkscape:window-width="1366"
     inkscape:window-height="705"
     inkscape:window-x="-8"
     inkscape:window-y="-8"
     inkscape:window-maximized="1"
     inkscape:snap-page="true" />
  <metadata
     id="metadata5">
    <rdf:RDF>
      <cc:Work
         rdf:about="">
        <dc:format>image/svg+xml</dc:format>
        <dc:type
           rdf:resource="http://purl.org/dc/dcmitype/StillImage" />
        <dc:title></dc:title>
      </cc:Work>
    </rdf:RDF>
  </metadata>
  <g
     inkscape:label="Capa 1"
     inkscape:groupmode="layer"
     id="layer1"
     transform="translate(-9.6347383,-72.640559)">
    <text
       xml:space="preserve"
       style="font-style:normal;font-weight:normal;font-size:10.58333302px;line-height:73.45000458;font-family:sans-serif;letter-spacing:0px;word-spacing:0px;fill:#000000;fill-opacity:1;stroke:none;stroke-width:0.26458332"
       x="59.720242"
       y="89.869041"
       id="text3727"><tspan
         sodipodi:role="line"
         id="tspan3725"
         x="59.720242"
         y="481.58289"
         style="line-height:73.45000458;stroke-width:0.26458332" /></text>
    <g
       id="g3809">
      <rect
         y="72.640556"
         x="9.634738"
         height="152.70027"
         width="193.24686"
         id="rect3787"
         style="fill:#ff00ff;stroke-width:0.18013375" />
      <path
         style="stroke-width:0.26458332"
         inkscape:connector-curvature="0"
         d="m 9.6347383,153.85015 c 7.2543747,-10.17316 14.7795937,-19.88166 22.0832827,-29.97767 8.889258,-12.40873 17.525107,-25.248817 26.58204,-37.372502 5.870416,-6.931367 5.475441,-6.84977 17.083421,-13.423413 1.453175,-0.822939 3.095055,-0.223238 4.643863,-0.250069 4.466478,-0.07738 8.911309,0.138435 13.362689,0.649535 13.757796,3.490651 26.441806,12.665803 39.085046,21.25803 9.69066,6.161499 19.27047,12.798209 29.2495,17.808549 2.46431,0.7997 4.81631,2.35914 7.30547,2.91928 2.15688,0.2442 4.28723,0.46444 6.42475,0.96403 2.06635,0.50282 4.15395,0.70273 6.24262,0.80289 2.11224,0.4784 3.94738,2.21408 5.84945,3.57758 2.21113,1.88521 4.5092,3.59552 6.55763,5.88466 1.53345,1.57978 3.1439,2.97556 4.74116,4.39461 1.44382,1.25844 2.51642,0.90457 4.03593,0.50041 0,0 -10.66096,12.22059 -10.66096,12.22059 v 0 c -1.62735,0.23102 -3.12478,-0.30647 -4.52762,-1.64172 -1.58889,-1.50856 -3.25002,-2.84622 -4.74158,-4.58503 -2.02378,-2.15532 -4.23821,-3.86941 -6.42994,-5.58235 -1.77845,-1.30147 -3.56861,-2.76306 -5.58176,-2.87832 -2.10485,-0.17543 -4.20149,-0.49489 -6.28451,-0.99996 -2.15271,-0.42892 -4.32803,-0.46664 -6.47407,-1.00241 -2.44454,-0.78198 -4.72621,-2.41233 -7.11159,-3.52356 -9.66001,-5.70597 -19.00826,-12.56403 -28.55151,-18.70287 -12.6481,-8.669494 -25.455541,-17.606287 -39.358282,-20.162331 -4.390841,-0.387728 -8.828322,-0.799411 -13.228765,-0.496446 -1.553101,0.106934 -5.359554,2.73927 -4.646547,0.618524 1.376922,-4.095469 4.839014,-5.458617 7.218613,-8.26878 0.779501,-0.920546 -1.611164,1.732039 -2.416745,2.598059 -9.43789,11.954019 -18.239513,25.032704 -27.252498,37.721624 -6.946225,9.75438 -14.104084,19.17609 -20.916167,29.13894 0,0 -12.2829207,7.81012 -12.2829207,7.81012 z"
         id="path3721" />
      <path
         style="fill:#ff0000;stroke-width:0.26458332"
         inkscape:connector-curvature="0"
         d="m 19.121833,155.00365 c 3.813115,-2.30266 7.282829,-5.80121 10.849934,-8.96362 3.348297,-3.70175 12.793104,-11.08922 -3.39936,3.10205 -0.747357,0.65499 1.412367,-1.54736 2.105985,-2.35222 1.262907,-1.46544 2.495729,-3.00284 3.748834,-4.49185 2.52848,-2.74554 4.896151,-5.79764 7.087026,-9.25777 2.63678,-4.44228 5.877531,-7.73126 9.084318,-10.87512 4.349646,-4.26429 8.725149,-8.45364 13.08772,-12.68046 -17.945702,17.56156 5.042221,-5.35829 11.032866,-10.13572 1.748975,-1.394777 1.564047,-1.191722 3.225251,-1.93302 2.057108,-0.320399 3.612205,1.908805 5.450737,3.01864 3.576571,2.52438 7.422662,3.45972 11.205254,4.6887 6.804563,2.83898 13.527372,6.22614 20.251452,9.56041 5.8147,2.36921 11.51006,5.318 17.1432,8.68181 7.80842,4.29818 15.98767,5.9404 24.13654,7.12093 4.59799,1.22217 9.54462,-0.61705 13.9678,2.19497 1.70456,1.23222 2.77566,3.48993 3.94736,5.76455 0.55032,1.23865 1.11103,2.47695 1.7466,3.59588 0,0 -10.38769,10.59026 -10.38769,10.59026 v 0 c -0.61362,-1.17466 -1.18938,-2.40507 -1.75,-3.65225 -1.0423,-2.01508 -1.97189,-4.00797 -3.53802,-4.9508 -4.28421,-2.2833 -8.94897,-1.10357 -13.34292,-2.33863 -8.25637,-1.40244 -16.53138,-3.22913 -24.50115,-7.26337 -5.61088,-3.16215 -11.19598,-6.41877 -16.95399,-8.78832 -6.742258,-3.31999 -13.481322,-6.74765 -20.35964,-9.18998 -3.912254,-1.16629 -7.856516,-2.19362 -11.564661,-4.70889 -1.654244,-1.10335 -3.108124,-2.84484 -4.955484,-1.98647 -1.788758,1.0293 -3.418402,2.39098 -5.092867,3.87659 -0.861715,0.76452 -3.402248,3.19137 -2.574156,2.32822 3.287635,-3.42678 24.206466,-23.637155 -6.07787,5.75256 15.331359,-14.99127 0.720861,-1.51211 -2.014085,3.66392 -2.323809,3.4085 -4.519095,7.04132 -7.232613,9.63517 -1.980974,2.26911 -3.851957,4.83341 -5.904093,6.92244 -5.533231,5.6327 -11.070336,11.26629 -16.740841,16.50308 -3.66251,3.3281 -7.341073,6.55868 -11.1685305,9.32395 0,0 9.4870935,-12.75564 9.4870935,-12.75564 z"
         id="path3723" />
      <text
         transform="scale(0.59375843,1.6841866)"
         id="text3731"
         y="122.40355"
         x="58.214596"
         style="font-style:normal;font-weight:normal;font-size:57.03974533px;line-height:5;font-family:sans-serif;letter-spacing:0px;word-spacing:0px;fill:#0000ff;fill-opacity:1;stroke:none;stroke-width:0.94916689"
         xml:space="preserve"><tspan
           style="fill:#0000ff;stroke-width:0.94916689"
           y="122.40355"
           x="58.214596"
           id="tspan3729"
           sodipodi:role="line">Q.T.B.</tspan></text>
      <path
         inkscape:connector-curvature="0"
         id="path3739"
         d="m 9.6347383,153.85015 c 0.2053771,-0.28301 4.4315097,-6.00941 9.3914107,-12.72534 4.959898,-6.71593 15.088305,-20.76385 22.50757,-31.2176 15.076615,-21.242979 17.352335,-23.855753 24.704506,-28.363484 4.337398,-2.659324 6.629369,-3.122857 14.559867,-2.944611 11.547552,0.259544 19.059382,3.051456 33.816448,12.568519 41.70424,26.895726 46.17338,29.270396 58.1802,30.913976 5.47346,0.74925 7.90615,1.87542 12.09844,5.60074 2.88609,2.56461 6.55809,5.708 8.16001,6.98531 1.60193,1.27732 2.9126,2.72186 2.9126,3.2101 0,1.59326 -7.87009,9.6084 -9.43452,9.6084 -0.83817,0 -4.43576,-2.78596 -7.99464,-6.191 -6.4599,-6.18066 -8.38769,-7.05984 -22.28966,-10.16527 -4.56986,-1.02081 -12.7102,-5.70713 -32.26253,-18.57321 C 94.322069,93.03785 87.908216,89.87005 75.779432,88.748244 c -13.407119,-1.240045 -13.839808,-0.973 -25.764783,15.901216 -26.688083,37.76448 -32.629831,45.70569 -35.64454,47.63932 -2.980966,1.91199 -5.6216504,2.78269 -4.7353707,1.56137 z"
         style="fill:#000080;stroke-width:0.75595236" />
      <text
         xml:space="preserve"
         style="font-style:normal;font-weight:normal;font-size:57.03974533px;line-height:5;font-family:sans-serif;letter-spacing:0px;word-spacing:0px;fill:#0000ff;fill-opacity:1;stroke:none;stroke-width:0.94916689"
         x="58.214596"
         y="122.40355"
         id="text3781"
         transform="scale(0.59375843,1.6841866)"><tspan
           sodipodi:role="line"
           id="tspan3779"
           x="58.214596"
           y="122.40355"
           style="fill:#0000ff;stroke-width:0.94916689">Q.T.B.</tspan></text>
      <text
         transform="scale(0.59375843,1.6841866)"
         id="text3785"
         y="122.40355"
         x="58.214596"
         style="font-style:normal;font-weight:normal;font-size:57.03974533px;line-height:5;font-family:sans-serif;letter-spacing:0px;word-spacing:0px;fill:#2b0000;fill-opacity:1;stroke:none;stroke-width:0.94916689;"
         xml:space="preserve"><tspan
           style="fill:#2b0000;stroke-width:0.94916689;"
           y="122.40355"
           x="58.214596"
           id="tspan3783"
           sodipodi:role="line">Q.T.B.</tspan></text>
    </g>
  </g>
</svg>
